<?xml version="1.0" encoding="UTF-8"?>
<svg id="Layer_1" data-name="Layer 1" xmlns="http://www.w3.org/2000/svg" viewBox="0 0 404.87 150.73">
  <defs>
    <style>
      .cls-1 {
        fill: #ac8c30;
      }
    </style>
  </defs>
  <path class="cls-1" d="m13.68,95.05s1.16-48.17,33.47-59.04c0,0-3.31-24.4,19.2-33.34,0,0,3.83-2.66,1.68,4.44,0,0,1.68-5.12,8.29-7.1,0,0,3.3-.84-2.68,8.93,0,0,4.15,4.44,3.57,5.43-.58.99-.79,7.27.05,7.89.84.63,2.36,3.29,2.36,4.29s-5.67,7.63-6.98,6.64c-1.31-.99,8.45,10.55-5.82,37.46,0,0-.47,16.67,1.84,17.81,2.31,1.15,7.14,3.45,4.61,6.58,0,0-9.6,1.31-10.28,0-.68-1.3,3.04-3.97-3.52-6.95l-3.62-11.86s.99,11.86-4.98,12.54c0,0,17.05-2.61,10.76,6.84l-34.94.89s-33.58,43.58-8.08,45.77c9.97.89,13.43-5.69,15.69-14.32.53-2.04,3.04-1.72,3.72.27.47,1.35.32,8.88-5.93,16.56-10.02,12.38-40.55,5.64-29.85-22.68,8.14-21.37,6.45-9.56,11.44-27.07Z"/>
  <path class="cls-1" d="m126.71,62.23h-28.59v-7.91h28.59v7.91Zm-41.35,33.44h54.11v-54.11h-54.11v54.11Zm12.76-12.76v-7.92h28.59v7.92h-28.59Z"/>
  <path class="cls-1" d="m159.47,54.32h28.59v28.59h-28.59v-28.59Zm-12.76,41.35h54.11v-54.11h-54.11v54.11Z"/>
  <path class="cls-1" d="m208.06,82.91v12.76h54.11v-33.44h-41.35v-7.91h41.35v-12.76h-54.11v33.43h41.35v7.92h-41.35Z"/>
  <path class="cls-1" d="m269.41,82.91v12.76h54.11v-33.44h-41.35v-7.91h41.35v-12.76h-54.11v33.43h41.35v7.92h-41.35Z"/>
  <path class="cls-1" d="m343.52,54.32h28.59v28.59h-28.59v-28.59Zm-12.76,41.35h54.11v-54.11h-54.11v54.11Z"/>
  <path class="cls-1" d="m392.11,95.67h12.76v-12.76h-12.76v12.76Z"/>
</svg>